<svg version="1.1" xmlns="http://www.w3.org/2000/svg" xmlns:xlink="http://www.w3.org/1999/xlink" style="" xml:space="preserve" width="487.62200927734375" height="487.62200927734375"><rect id="backgroundrect" width="100%" height="100%" x="0" y="0" fill="none" stroke="none"/>

<g class="currentLayer" style=""><title>Layer 1</title><g id="svg_1" class="" transform="rotate(15.0495, 244.563, 243.811)">
	<g id="svg_2">
		<circle style="fill:#2C8AAA;" cx="244.56288146972656" cy="243.81100463867188" r="243.81100463867188" id="svg_3"/>
		<path style="fill:#FFFFFF;" d="M244.57087993621826,377.4010009765625 c31.867000579833984,0 61.82600021362305,-12.409000396728516 84.35900115966797,-34.941001892089844 c22.5310001373291,-22.533000946044922 34.94200134277344,-52.49599838256836 34.94200134277344,-84.35900115966797 c0,-0.0020000000949949026 0,0.0010000000474974513 0,-0.0010000000474974513 c0,-31.865999221801758 -12.409000396728516,-61.82500076293945 -34.94200134277344,-84.35800170898438 c-16.023000717163086,-16.023000717163086 -36.130001068115234,-27.10300064086914 -58.14699935913086,-32.04100036621094 c-11.949000358581543,-2.681999921798706 -24.17099952697754,-3.5 -36.249000549316406,-2.4839999675750732 l-8.194999694824219,-28.993999481201172 l-33.55699920654297,34.487998962402344 l-33.55699920654297,34.487998962402344 l46.645999908447266,11.815999984741211 l46.645999908447266,11.815999984741211 l-9.878999710083008,-34.946998596191406 c24.214000701904297,-0.5740000009536743 47.90299987792969,8.651000022888184 65.70099639892578,26.448999404907227 c35.1609992980957,35.1609992980957 35.1609992980957,92.37300109863281 0,127.53299713134766 c-35.1609992980957,35.1609992980957 -92.37200164794922,35.1609992980957 -127.53199768066406,0 c-26.469999313354492,-26.466999053955078 -33.8650016784668,-65.72000122070312 -18.847000122070312,-99.99600219726562 l-26.673999786376953,-11.687999725341797 c-9.529000282287598,21.74799919128418 -12.340999603271484,45.643001556396484 -8.128999710083008,69.09600067138672 c4.314000129699707,24.020000457763672 15.744999885559082,45.867000579833984 33.05799865722656,63.180999755859375 C182.74687480926514,364.9909973144531 212.7058744430542,377.4010009765625 244.57087993621826,377.4010009765625 z" id="svg_4"/>
	</g>
</g><rect fill="#2c8aaa" style="color: rgb(0, 0, 0);" stroke-dashoffset="" fill-rule="nonzero" id="svg_5" x="54.07285213470459" y="177.30322265625" width="141.58364868164062" height="139.68675231933594" class="" transform="rotate(-31.6993, 124.865, 247.147)" opacity="1" fill-opacity="1"/></g></svg>